<mxfile host="65bd71144e">
    <diagram id="C5RBs43oDa-KdzZeNtuy" name="Page-1">
        <mxGraphModel dx="417" dy="347" grid="1" gridSize="10" guides="1" tooltips="1" connect="1" arrows="1" fold="1" page="1" pageScale="1" pageWidth="1169" pageHeight="827" math="0" shadow="0">
            <root>
                <mxCell id="WIyWlLk6GJQsqaUBKTNV-0"/>
                <mxCell id="WIyWlLk6GJQsqaUBKTNV-1" parent="WIyWlLk6GJQsqaUBKTNV-0"/>
                <mxCell id="SY0biOSwpH2cryvIoxOE-1" value="INICIO" style="rounded=1;whiteSpace=wrap;html=1;absoluteArcSize=1;arcSize=14;strokeWidth=2;" parent="WIyWlLk6GJQsqaUBKTNV-1" vertex="1">
                    <mxGeometry x="70" y="110" width="100" height="100" as="geometry"/>
                </mxCell>
                <mxCell id="SY0biOSwpH2cryvIoxOE-14" value="&lt;font color=&quot;#000000&quot;&gt;transformar de ruta relativa a absoluta &lt;/font&gt;" style="rounded=1;whiteSpace=wrap;html=1;strokeWidth=2;fillWeight=4;hachureGap=8;hachureAngle=45;fillColor=#D4E1F5;sketch=1;fillStyle=solid;" parent="WIyWlLk6GJQsqaUBKTNV-1" vertex="1">
                    <mxGeometry x="708" y="110" width="120" height="60" as="geometry"/>
                </mxCell>
                <mxCell id="SY0biOSwpH2cryvIoxOE-15" value="&lt;div&gt;&lt;font color=&quot;#000000&quot;&gt;la ruta es &lt;br&gt;&lt;/font&gt;&lt;/div&gt;&lt;div&gt;&lt;font color=&quot;#000000&quot;&gt;absoluta o &lt;br&gt;&lt;/font&gt;&lt;/div&gt;&lt;div&gt;&lt;font color=&quot;#000000&quot;&gt;relativa?&lt;/font&gt;&lt;br&gt;&lt;/div&gt;" style="strokeWidth=2;html=1;shape=mxgraph.flowchart.decision;whiteSpace=wrap;fillColor=#FFE599;" parent="WIyWlLk6GJQsqaUBKTNV-1" vertex="1">
                    <mxGeometry x="616" y="219" width="120" height="120" as="geometry"/>
                </mxCell>
                <mxCell id="SY0biOSwpH2cryvIoxOE-16" value="&lt;div&gt;&lt;font color=&quot;#000000&quot;&gt;existe la&lt;/font&gt;&lt;/div&gt;&lt;div&gt;&lt;font color=&quot;#000000&quot;&gt;&amp;nbsp;ruta?&lt;/font&gt;&lt;br&gt;&lt;/div&gt;" style="strokeWidth=2;html=1;shape=mxgraph.flowchart.decision;whiteSpace=wrap;fillColor=#FFE599;" parent="WIyWlLk6GJQsqaUBKTNV-1" vertex="1">
                    <mxGeometry x="443" y="220" width="120" height="120" as="geometry"/>
                </mxCell>
                <mxCell id="SY0biOSwpH2cryvIoxOE-17" value="FIN" style="rounded=1;whiteSpace=wrap;html=1;absoluteArcSize=1;arcSize=14;strokeWidth=2;" parent="WIyWlLk6GJQsqaUBKTNV-1" vertex="1">
                    <mxGeometry x="419" y="573" width="100" height="100" as="geometry"/>
                </mxCell>
                <mxCell id="SY0biOSwpH2cryvIoxOE-47" value="es relativa" style="text;strokeColor=none;align=center;fillColor=none;html=1;verticalAlign=middle;whiteSpace=wrap;rounded=0;strokeWidth=2;" parent="WIyWlLk6GJQsqaUBKTNV-1" vertex="1">
                    <mxGeometry x="616" y="160" width="60" height="30" as="geometry"/>
                </mxCell>
                <mxCell id="SY0biOSwpH2cryvIoxOE-53" value="" style="endArrow=classic;html=1;rounded=0;strokeWidth=2;endSize=4;entryX=0.006;entryY=0.493;entryDx=0;entryDy=0;exitX=1;exitY=0.5;exitDx=0;exitDy=0;exitPerimeter=0;entryPerimeter=0;" parent="WIyWlLk6GJQsqaUBKTNV-1" source="SY0biOSwpH2cryvIoxOE-15" target="SY0biOSwpH2cryvIoxOE-81" edge="1">
                    <mxGeometry width="50" height="50" relative="1" as="geometry">
                        <mxPoint x="699" y="278.8299999999999" as="sourcePoint"/>
                        <mxPoint x="790" y="279" as="targetPoint"/>
                    </mxGeometry>
                </mxCell>
                <mxCell id="SY0biOSwpH2cryvIoxOE-57" value="es absoluta" style="text;strokeColor=none;align=center;fillColor=none;html=1;verticalAlign=middle;whiteSpace=wrap;rounded=0;strokeWidth=2;" parent="WIyWlLk6GJQsqaUBKTNV-1" vertex="1">
                    <mxGeometry x="717" y="249" width="88" height="30" as="geometry"/>
                </mxCell>
                <mxCell id="SY0biOSwpH2cryvIoxOE-67" value="" style="endArrow=classic;html=1;rounded=0;strokeWidth=2;endSize=4;exitX=0.5;exitY=0;exitDx=0;exitDy=0;exitPerimeter=0;entryX=0;entryY=0.5;entryDx=0;entryDy=0;" parent="WIyWlLk6GJQsqaUBKTNV-1" source="SY0biOSwpH2cryvIoxOE-15" target="SY0biOSwpH2cryvIoxOE-14" edge="1">
                    <mxGeometry width="50" height="50" relative="1" as="geometry">
                        <mxPoint x="639" y="189.75" as="sourcePoint"/>
                        <mxPoint x="680" y="140" as="targetPoint"/>
                        <Array as="points">
                            <mxPoint x="676" y="140"/>
                        </Array>
                    </mxGeometry>
                </mxCell>
                <mxCell id="SY0biOSwpH2cryvIoxOE-68" value="" style="endArrow=classic;html=1;rounded=0;strokeWidth=2;endSize=4;entryX=0.5;entryY=0;entryDx=0;entryDy=0;exitX=0.995;exitY=0.473;exitDx=0;exitDy=0;exitPerimeter=0;entryPerimeter=0;" parent="WIyWlLk6GJQsqaUBKTNV-1" source="SY0biOSwpH2cryvIoxOE-14" target="SY0biOSwpH2cryvIoxOE-81" edge="1">
                    <mxGeometry width="50" height="50" relative="1" as="geometry">
                        <mxPoint x="804.74" y="137.81999999999994" as="sourcePoint"/>
                        <mxPoint x="850" y="241" as="targetPoint"/>
                        <Array as="points">
                            <mxPoint x="848" y="138"/>
                        </Array>
                    </mxGeometry>
                </mxCell>
                <mxCell id="SY0biOSwpH2cryvIoxOE-78" value="&lt;font color=&quot;#000000&quot;&gt;recibe la funcion mdLinks(path, options)&lt;/font&gt;" style="rounded=1;whiteSpace=wrap;html=1;strokeWidth=2;fillWeight=4;hachureGap=8;hachureAngle=45;fillColor=#D4E1F5;sketch=1;fillStyle=solid;" parent="WIyWlLk6GJQsqaUBKTNV-1" vertex="1">
                    <mxGeometry x="60" y="250" width="120" height="60" as="geometry"/>
                </mxCell>
                <mxCell id="SY0biOSwpH2cryvIoxOE-79" value="&lt;font color=&quot;#000000&quot;&gt;lee el path&lt;/font&gt;" style="rounded=1;whiteSpace=wrap;html=1;strokeWidth=2;fillWeight=4;hachureGap=8;hachureAngle=45;fillColor=#D4E1F5;sketch=1;fillStyle=solid;" parent="WIyWlLk6GJQsqaUBKTNV-1" vertex="1">
                    <mxGeometry x="260" y="250" width="120" height="60" as="geometry"/>
                </mxCell>
                <mxCell id="SY0biOSwpH2cryvIoxOE-81" value="&lt;div&gt;&lt;font color=&quot;#000000&quot;&gt;es un archivo&lt;/font&gt;&lt;/div&gt;&lt;div&gt;&lt;font color=&quot;#000000&quot;&gt;o directorio?&lt;/font&gt;&lt;br&gt;&lt;/div&gt;" style="strokeWidth=2;html=1;shape=mxgraph.flowchart.decision;whiteSpace=wrap;fillColor=#FFE599;" parent="WIyWlLk6GJQsqaUBKTNV-1" vertex="1">
                    <mxGeometry x="788" y="220" width="120" height="120" as="geometry"/>
                </mxCell>
                <mxCell id="SY0biOSwpH2cryvIoxOE-84" value="&lt;div&gt;&lt;font color=&quot;#000000&quot;&gt;es un archivo&lt;/font&gt;&lt;/div&gt;&lt;div&gt;&lt;font color=&quot;#000000&quot;&gt;.md?&lt;/font&gt;&lt;br&gt;&lt;/div&gt;" style="strokeWidth=2;html=1;shape=mxgraph.flowchart.decision;whiteSpace=wrap;fillColor=#FFE599;" parent="WIyWlLk6GJQsqaUBKTNV-1" vertex="1">
                    <mxGeometry x="950" y="219" width="120" height="120" as="geometry"/>
                </mxCell>
                <mxCell id="SY0biOSwpH2cryvIoxOE-85" value="&lt;div&gt;&lt;font color=&quot;#000000&quot;&gt;mensaje de error&lt;/font&gt;&lt;/div&gt;&lt;div&gt;&lt;font color=&quot;#000000&quot;&gt;(FIN)&lt;/font&gt;&lt;br&gt;&lt;/div&gt;" style="rounded=0;whiteSpace=wrap;html=1;strokeColor=default;strokeWidth=2;fillColor=#ffffff;gradientColor=none;" parent="WIyWlLk6GJQsqaUBKTNV-1" vertex="1">
                    <mxGeometry x="650" y="418" width="120" height="60" as="geometry"/>
                </mxCell>
                <mxCell id="SY0biOSwpH2cryvIoxOE-86" value="&lt;div&gt;&lt;font color=&quot;#000000&quot;&gt;el archivo &lt;br&gt;&lt;/font&gt;&lt;/div&gt;&lt;div&gt;&lt;font color=&quot;#000000&quot;&gt;contiene &lt;br&gt;&lt;/font&gt;&lt;/div&gt;&lt;div&gt;&lt;font color=&quot;#000000&quot;&gt;links?&lt;/font&gt;&lt;/div&gt;" style="strokeWidth=2;html=1;shape=mxgraph.flowchart.decision;whiteSpace=wrap;fillColor=#FFE599;" parent="WIyWlLk6GJQsqaUBKTNV-1" vertex="1">
                    <mxGeometry x="950" y="390" width="120" height="120" as="geometry"/>
                </mxCell>
                <mxCell id="SY0biOSwpH2cryvIoxOE-87" value="&lt;font color=&quot;#000000&quot;&gt;obtener links&lt;/font&gt;" style="rounded=1;whiteSpace=wrap;html=1;strokeWidth=2;fillWeight=4;hachureGap=8;hachureAngle=45;fillColor=#D4E1F5;sketch=1;fillStyle=solid;" parent="WIyWlLk6GJQsqaUBKTNV-1" vertex="1">
                    <mxGeometry x="950" y="593" width="120" height="60" as="geometry"/>
                </mxCell>
                <mxCell id="SY0biOSwpH2cryvIoxOE-88" value="&lt;div&gt;&lt;font color=&quot;#000000&quot;&gt;son los links &lt;br&gt;&lt;/font&gt;&lt;/div&gt;&lt;div&gt;&lt;font color=&quot;#000000&quot;&gt;vÃ¡lidos?&lt;/font&gt;&lt;/div&gt;" style="strokeWidth=2;html=1;shape=mxgraph.flowchart.decision;whiteSpace=wrap;fillColor=#FFE599;" parent="WIyWlLk6GJQsqaUBKTNV-1" vertex="1">
                    <mxGeometry x="770" y="563" width="120" height="120" as="geometry"/>
                </mxCell>
                <mxCell id="SY0biOSwpH2cryvIoxOE-89" value="&lt;font color=&quot;#000000&quot;&gt;generar informe&lt;/font&gt;" style="rounded=1;whiteSpace=wrap;html=1;strokeWidth=2;fillWeight=4;hachureGap=8;hachureAngle=45;fillColor=#D4E1F5;sketch=1;fillStyle=solid;" parent="WIyWlLk6GJQsqaUBKTNV-1" vertex="1">
                    <mxGeometry x="589" y="593" width="120" height="60" as="geometry"/>
                </mxCell>
                <mxCell id="SY0biOSwpH2cryvIoxOE-91" value="" style="endArrow=classic;html=1;rounded=0;strokeWidth=2;endSize=4;entryX=0.007;entryY=0.504;entryDx=0;entryDy=0;exitX=0.99;exitY=0.498;exitDx=0;exitDy=0;exitPerimeter=0;entryPerimeter=0;" parent="WIyWlLk6GJQsqaUBKTNV-1" source="SY0biOSwpH2cryvIoxOE-16" target="SY0biOSwpH2cryvIoxOE-15" edge="1">
                    <mxGeometry width="50" height="50" relative="1" as="geometry">
                        <mxPoint x="563" y="279.75" as="sourcePoint"/>
                        <mxPoint x="615.72" y="279.9100000000001" as="targetPoint"/>
                    </mxGeometry>
                </mxCell>
                <mxCell id="SY0biOSwpH2cryvIoxOE-92" value="" style="endArrow=classic;html=1;rounded=0;strokeWidth=2;endSize=4;entryX=0;entryY=0.5;entryDx=0;entryDy=0;exitX=0.998;exitY=0.481;exitDx=0;exitDy=0;exitPerimeter=0;entryPerimeter=0;" parent="WIyWlLk6GJQsqaUBKTNV-1" source="SY0biOSwpH2cryvIoxOE-79" target="SY0biOSwpH2cryvIoxOE-16" edge="1">
                    <mxGeometry width="50" height="50" relative="1" as="geometry">
                        <mxPoint x="380" y="278.5" as="sourcePoint"/>
                        <mxPoint x="432.72" y="278.6600000000001" as="targetPoint"/>
                    </mxGeometry>
                </mxCell>
                <mxCell id="SY0biOSwpH2cryvIoxOE-94" value="" style="endArrow=classic;html=1;rounded=0;strokeWidth=2;endSize=4;entryX=0;entryY=0.5;entryDx=0;entryDy=0;exitX=1;exitY=0.5;exitDx=0;exitDy=0;" parent="WIyWlLk6GJQsqaUBKTNV-1" source="SY0biOSwpH2cryvIoxOE-78" target="SY0biOSwpH2cryvIoxOE-79" edge="1">
                    <mxGeometry width="50" height="50" relative="1" as="geometry">
                        <mxPoint x="180" y="279" as="sourcePoint"/>
                        <mxPoint x="275.24" y="280.14" as="targetPoint"/>
                    </mxGeometry>
                </mxCell>
                <mxCell id="SY0biOSwpH2cryvIoxOE-95" value="" style="endArrow=classic;html=1;rounded=0;strokeWidth=2;endSize=4;entryX=0.5;entryY=0;entryDx=0;entryDy=0;exitX=0.5;exitY=1;exitDx=0;exitDy=0;" parent="WIyWlLk6GJQsqaUBKTNV-1" source="SY0biOSwpH2cryvIoxOE-1" target="SY0biOSwpH2cryvIoxOE-78" edge="1">
                    <mxGeometry width="50" height="50" relative="1" as="geometry">
                        <mxPoint x="79.99999999999994" y="230" as="sourcePoint"/>
                        <mxPoint x="160" y="230" as="targetPoint"/>
                    </mxGeometry>
                </mxCell>
                <mxCell id="SY0biOSwpH2cryvIoxOE-98" value="" style="endArrow=classic;html=1;rounded=0;strokeWidth=2;endSize=4;exitX=1;exitY=0.5;exitDx=0;exitDy=0;exitPerimeter=0;entryX=0;entryY=0.5;entryDx=0;entryDy=0;entryPerimeter=0;" parent="WIyWlLk6GJQsqaUBKTNV-1" source="SY0biOSwpH2cryvIoxOE-81" target="SY0biOSwpH2cryvIoxOE-84" edge="1">
                    <mxGeometry width="50" height="50" relative="1" as="geometry">
                        <mxPoint x="848.36" y="338.8" as="sourcePoint"/>
                        <mxPoint x="848.4799999999999" y="370.2" as="targetPoint"/>
                    </mxGeometry>
                </mxCell>
                <mxCell id="SY0biOSwpH2cryvIoxOE-99" value="" style="endArrow=classic;html=1;rounded=0;strokeWidth=2;endSize=4;entryX=0.501;entryY=0.009;entryDx=0;entryDy=0;exitX=0.5;exitY=0.996;exitDx=0;exitDy=0;exitPerimeter=0;entryPerimeter=0;" parent="WIyWlLk6GJQsqaUBKTNV-1" source="SY0biOSwpH2cryvIoxOE-84" target="SY0biOSwpH2cryvIoxOE-86" edge="1">
                    <mxGeometry width="50" height="50" relative="1" as="geometry">
                        <mxPoint x="847.6599999999999" y="489" as="sourcePoint"/>
                        <mxPoint x="847.6599999999999" y="529" as="targetPoint"/>
                    </mxGeometry>
                </mxCell>
                <mxCell id="SY0biOSwpH2cryvIoxOE-100" value="" style="endArrow=classic;html=1;rounded=0;strokeWidth=2;endSize=4;exitX=0.503;exitY=1;exitDx=0;exitDy=0;exitPerimeter=0;entryX=0.495;entryY=0.011;entryDx=0;entryDy=0;entryPerimeter=0;" parent="WIyWlLk6GJQsqaUBKTNV-1" source="SY0biOSwpH2cryvIoxOE-86" target="SY0biOSwpH2cryvIoxOE-87" edge="1">
                    <mxGeometry width="50" height="50" relative="1" as="geometry">
                        <mxPoint x="1009.6599999999999" y="510" as="sourcePoint"/>
                        <mxPoint x="1009" y="583" as="targetPoint"/>
                    </mxGeometry>
                </mxCell>
                <mxCell id="SY0biOSwpH2cryvIoxOE-101" value="" style="endArrow=classic;html=1;rounded=0;strokeWidth=2;endSize=4;entryX=1;entryY=0.5;entryDx=0;entryDy=0;entryPerimeter=0;" parent="WIyWlLk6GJQsqaUBKTNV-1" target="SY0biOSwpH2cryvIoxOE-88" edge="1">
                    <mxGeometry width="50" height="50" relative="1" as="geometry">
                        <mxPoint x="949" y="623" as="sourcePoint"/>
                        <mxPoint x="921.6599999999999" y="653" as="targetPoint"/>
                    </mxGeometry>
                </mxCell>
                <mxCell id="SY0biOSwpH2cryvIoxOE-102" value="" style="endArrow=classic;html=1;rounded=0;strokeWidth=2;endSize=4;entryX=1;entryY=0.5;entryDx=0;entryDy=0;exitX=0;exitY=0.5;exitDx=0;exitDy=0;exitPerimeter=0;" parent="WIyWlLk6GJQsqaUBKTNV-1" source="SY0biOSwpH2cryvIoxOE-88" target="SY0biOSwpH2cryvIoxOE-89" edge="1">
                    <mxGeometry width="50" height="50" relative="1" as="geometry">
                        <mxPoint x="779" y="622.83" as="sourcePoint"/>
                        <mxPoint x="729" y="622.83" as="targetPoint"/>
                    </mxGeometry>
                </mxCell>
                <mxCell id="SY0biOSwpH2cryvIoxOE-103" value="" style="endArrow=classic;html=1;rounded=0;strokeWidth=2;endSize=4;entryX=1;entryY=0.5;entryDx=0;entryDy=0;exitX=0;exitY=0.5;exitDx=0;exitDy=0;" parent="WIyWlLk6GJQsqaUBKTNV-1" source="SY0biOSwpH2cryvIoxOE-89" target="SY0biOSwpH2cryvIoxOE-17" edge="1">
                    <mxGeometry width="50" height="50" relative="1" as="geometry">
                        <mxPoint x="589" y="622.2900000000002" as="sourcePoint"/>
                        <mxPoint x="528" y="622.2900000000002" as="targetPoint"/>
                    </mxGeometry>
                </mxCell>
                <mxCell id="SY0biOSwpH2cryvIoxOE-104" value="si" style="text;strokeColor=none;align=center;fillColor=none;html=1;verticalAlign=middle;whiteSpace=wrap;rounded=0;strokeWidth=2;" parent="WIyWlLk6GJQsqaUBKTNV-1" vertex="1">
                    <mxGeometry x="569" y="250" width="29" height="30" as="geometry"/>
                </mxCell>
                <mxCell id="SY0biOSwpH2cryvIoxOE-105" value="" style="endArrow=classic;html=1;rounded=0;strokeWidth=2;endSize=4;exitX=0.5;exitY=1;exitDx=0;exitDy=0;exitPerimeter=0;entryX=0;entryY=0.5;entryDx=0;entryDy=0;" parent="WIyWlLk6GJQsqaUBKTNV-1" source="SY0biOSwpH2cryvIoxOE-16" target="SY0biOSwpH2cryvIoxOE-85" edge="1">
                    <mxGeometry width="50" height="50" relative="1" as="geometry">
                        <mxPoint x="510" y="430" as="sourcePoint"/>
                        <mxPoint x="542" y="351" as="targetPoint"/>
                        <Array as="points">
                            <mxPoint x="503" y="448"/>
                        </Array>
                    </mxGeometry>
                </mxCell>
                <mxCell id="SY0biOSwpH2cryvIoxOE-106" value="no" style="text;strokeColor=none;align=center;fillColor=none;html=1;verticalAlign=middle;whiteSpace=wrap;rounded=0;strokeWidth=2;" parent="WIyWlLk6GJQsqaUBKTNV-1" vertex="1">
                    <mxGeometry x="500" y="383" width="29" height="30" as="geometry"/>
                </mxCell>
                <mxCell id="SY0biOSwpH2cryvIoxOE-108" value="es un directorio" style="text;strokeColor=none;align=center;fillColor=none;html=1;verticalAlign=middle;whiteSpace=wrap;rounded=0;strokeWidth=2;" parent="WIyWlLk6GJQsqaUBKTNV-1" vertex="1">
                    <mxGeometry x="788" y="340" width="60" height="30" as="geometry"/>
                </mxCell>
                <mxCell id="SY0biOSwpH2cryvIoxOE-109" value="si" style="text;strokeColor=none;align=center;fillColor=none;html=1;verticalAlign=middle;whiteSpace=wrap;rounded=0;strokeWidth=2;" parent="WIyWlLk6GJQsqaUBKTNV-1" vertex="1">
                    <mxGeometry x="1006" y="340" width="29" height="30" as="geometry"/>
                </mxCell>
                <mxCell id="SY0biOSwpH2cryvIoxOE-110" value="si" style="text;strokeColor=none;align=center;fillColor=none;html=1;verticalAlign=middle;whiteSpace=wrap;rounded=0;strokeWidth=2;" parent="WIyWlLk6GJQsqaUBKTNV-1" vertex="1">
                    <mxGeometry x="1006" y="543" width="29" height="30" as="geometry"/>
                </mxCell>
                <mxCell id="SY0biOSwpH2cryvIoxOE-111" value="" style="endArrow=none;html=1;rounded=0;strokeWidth=2;endSize=6;entryX=0.252;entryY=0.751;entryDx=0;entryDy=0;entryPerimeter=0;" parent="WIyWlLk6GJQsqaUBKTNV-1" target="SY0biOSwpH2cryvIoxOE-84" edge="1">
                    <mxGeometry width="50" height="50" relative="1" as="geometry">
                        <mxPoint x="849" y="390" as="sourcePoint"/>
                        <mxPoint x="979" y="310" as="targetPoint"/>
                        <Array as="points">
                            <mxPoint x="899" y="390"/>
                        </Array>
                    </mxGeometry>
                </mxCell>
                <mxCell id="SY0biOSwpH2cryvIoxOE-112" value="no" style="text;strokeColor=none;align=center;fillColor=none;html=1;verticalAlign=middle;whiteSpace=wrap;rounded=0;strokeWidth=2;" parent="WIyWlLk6GJQsqaUBKTNV-1" vertex="1">
                    <mxGeometry x="921" y="320" width="29" height="30" as="geometry"/>
                </mxCell>
                <mxCell id="SY0biOSwpH2cryvIoxOE-114" value="" style="endArrow=classic;html=1;rounded=0;strokeWidth=2;endSize=4;entryX=1;entryY=0.5;entryDx=0;entryDy=0;exitX=0.011;exitY=0.497;exitDx=0;exitDy=0;exitPerimeter=0;" parent="WIyWlLk6GJQsqaUBKTNV-1" source="SY0biOSwpH2cryvIoxOE-86" target="SY0biOSwpH2cryvIoxOE-85" edge="1">
                    <mxGeometry width="50" height="50" relative="1" as="geometry">
                        <mxPoint x="948.9999999999998" y="449.62" as="sourcePoint"/>
                        <mxPoint x="890" y="449.62" as="targetPoint"/>
                    </mxGeometry>
                </mxCell>
                <mxCell id="SY0biOSwpH2cryvIoxOE-115" value="" style="endArrow=none;html=1;rounded=0;strokeWidth=2;endSize=6;entryX=0.5;entryY=1;entryDx=0;entryDy=0;entryPerimeter=0;" parent="WIyWlLk6GJQsqaUBKTNV-1" target="SY0biOSwpH2cryvIoxOE-81" edge="1">
                    <mxGeometry width="50" height="50" relative="1" as="geometry">
                        <mxPoint x="848" y="450" as="sourcePoint"/>
                        <mxPoint x="848" y="339" as="targetPoint"/>
                    </mxGeometry>
                </mxCell>
                <mxCell id="SY0biOSwpH2cryvIoxOE-116" value="no" style="text;strokeColor=none;align=center;fillColor=none;html=1;verticalAlign=middle;whiteSpace=wrap;rounded=0;strokeWidth=2;" parent="WIyWlLk6GJQsqaUBKTNV-1" vertex="1">
                    <mxGeometry x="892" y="420" width="29" height="30" as="geometry"/>
                </mxCell>
                <mxCell id="SY0biOSwpH2cryvIoxOE-118" value="" style="endArrow=classic;html=1;rounded=0;strokeWidth=1;endSize=6;" parent="WIyWlLk6GJQsqaUBKTNV-1" edge="1">
                    <mxGeometry width="50" height="50" relative="1" as="geometry">
                        <mxPoint x="848" y="360" as="sourcePoint"/>
                        <mxPoint x="848" y="380" as="targetPoint"/>
                    </mxGeometry>
                </mxCell>
                <mxCell id="SY0biOSwpH2cryvIoxOE-119" value="" style="endArrow=classic;html=1;rounded=0;strokeWidth=1;endSize=6;" parent="WIyWlLk6GJQsqaUBKTNV-1" edge="1">
                    <mxGeometry width="50" height="50" relative="1" as="geometry">
                        <mxPoint x="940" y="349" as="sourcePoint"/>
                        <mxPoint x="920" y="369" as="targetPoint"/>
                    </mxGeometry>
                </mxCell>
            </root>
        </mxGraphModel>
    </diagram>
</mxfile>